<svg xmlns="http://www.w3.org/2000/svg" xmlns:xlink="http://www.w3.org/1999/xlink" width="100" zoomAndPan="magnify" viewBox="0 0 375 374.999991" height="90" preserveAspectRatio="xMidYMid meet" version="1.0"><defs><g/><clipPath id="f6c486de56"><path d="M 33.558594 0.00390625 L 326.808594 0.00390625 L 326.808594 294 L 33.558594 294 Z M 33.558594 0.00390625 " clip-rule="nonzero"/></clipPath></defs><g clip-path="url(#f6c486de56)"><path fill="#000000" d="M 130.703125 287.804688 C 130.703125 284.726562 133.199219 282.230469 136.273438 282.230469 L 307.222656 282.230469 L 212.628906 187.628906 C 210.453125 185.449219 210.453125 181.921875 212.628906 179.746094 C 214.804688 177.570312 218.332031 177.570312 220.507812 179.746094 L 324.617188 283.863281 C 326.210938 285.457031 326.691406 287.855469 325.828125 289.9375 C 324.964844 292.019531 322.929688 293.378906 320.679688 293.378906 L 136.273438 293.378906 C 133.199219 293.378906 130.703125 290.882812 130.703125 287.804688 Z M 33.558594 6.234375 C 33.558594 3.15625 36.050781 0.660156 39.128906 0.660156 L 233.417969 0.660156 C 235.671875 0.660156 237.707031 2.019531 238.566406 4.101562 C 239.429688 6.183594 238.953125 8.582031 237.363281 10.175781 L 140.214844 107.328125 C 138.039062 109.503906 134.511719 109.503906 132.335938 107.328125 C 130.15625 105.152344 130.15625 101.621094 132.335938 99.445312 L 219.96875 11.808594 L 39.128906 11.808594 C 36.050781 11.808594 33.558594 9.3125 33.558594 6.234375 Z M 33.558594 287.804688 C 33.558594 286.378906 34.101562 284.953125 35.1875 283.863281 L 316.738281 2.292969 C 318.914062 0.117188 322.441406 0.117188 324.617188 2.292969 C 326.792969 4.46875 326.792969 7.996094 324.617188 10.175781 L 43.070312 291.746094 C 40.894531 293.921875 37.363281 293.921875 35.1875 291.746094 C 34.101562 290.65625 33.558594 289.230469 33.558594 287.804688 " fill-opacity="1" fill-rule="nonzero"/></g><g fill="#000000" fill-opacity="1"><g transform="translate(50.241782, 334.903075)"><g><path d="M 12.085938 -5.890625 L 23.425781 -25.167969 C 23.714844 -25.609375 23.511719 -26 22.953125 -26 L 3.214844 -26 C 2.777344 -26 2.539062 -25.761719 2.539062 -25.304688 L 2.539062 -20.800781 C 2.539062 -20.34375 2.777344 -20.109375 3.214844 -20.109375 L 12.304688 -20.109375 L 1 -0.828125 C 0.726562 -0.390625 0.929688 0 1.488281 0 L 23.324219 0 C 23.78125 0 24.019531 -0.238281 24.019531 -0.695312 L 24.019531 -5.195312 C 24.019531 -5.652344 23.78125 -5.890625 23.324219 -5.890625 Z M 12.085938 -5.890625 "/></g></g></g><g fill="#000000" fill-opacity="1"><g transform="translate(103.110169, 334.903075)"><g><path d="M 19.449219 0 C 19.90625 0 20.140625 -0.238281 20.140625 -0.695312 L 20.140625 -5.195312 C 20.140625 -5.652344 19.90625 -5.890625 19.449219 -5.890625 L 9.496094 -5.890625 L 9.496094 -8.9375 L 18.09375 -8.9375 C 18.550781 -8.9375 18.789062 -9.191406 18.789062 -9.632812 L 18.789062 -13.792969 C 18.789062 -14.25 18.550781 -14.488281 18.09375 -14.488281 L 9.496094 -14.488281 L 9.496094 -20.109375 L 19.449219 -20.109375 C 19.90625 -20.109375 20.140625 -20.34375 20.140625 -20.800781 L 20.140625 -25.304688 C 20.140625 -25.761719 19.90625 -26 19.449219 -26 L 3.265625 -26 C 2.808594 -26 2.574219 -25.761719 2.574219 -25.304688 L 2.574219 -0.695312 C 2.574219 -0.238281 2.808594 0 3.265625 0 Z M 19.449219 0 "/></g></g></g><g fill="#000000" fill-opacity="1"><g transform="translate(152.965763, 334.903075)"><g><path d="M 8.597656 0 C 9.054688 0 9.292969 -0.238281 9.292969 -0.695312 L 9.292969 -13.101562 L 23.679688 0 C 24.761719 1 25.542969 0.558594 25.542969 -0.625 L 25.542969 -25.304688 C 25.542969 -25.761719 25.304688 -26 24.847656 -26 L 19.550781 -26 C 19.09375 -26 18.855469 -25.761719 18.855469 -25.304688 L 18.855469 -13.339844 L 4.300781 -26.167969 C 3.335938 -27.015625 2.605469 -26.589844 2.605469 -25.40625 L 2.605469 -0.695312 C 2.605469 -0.238281 2.84375 0 3.300781 0 Z M 8.597656 0 "/></g></g></g><g fill="#000000" fill-opacity="1"><g transform="translate(208.84695, 334.903075)"><g><path d="M 8.800781 0 C 9.257812 0 9.496094 -0.238281 9.496094 -0.695312 L 9.496094 -25.304688 C 9.496094 -25.761719 9.257812 -26 8.800781 -26 L 3.265625 -26 C 2.808594 -26 2.574219 -25.761719 2.574219 -25.304688 L 2.574219 -0.695312 C 2.574219 -0.238281 2.808594 0 3.265625 0 Z M 8.800781 0 "/></g></g></g><g fill="#000000" fill-opacity="1"><g transform="translate(248.648606, 334.903075)"><g><path d="M 12.898438 0 C 13.339844 0 13.589844 -0.238281 13.589844 -0.695312 L 13.589844 -20.109375 L 18.820312 -20.109375 C 19.277344 -20.109375 19.515625 -20.34375 19.515625 -20.800781 L 19.515625 -25.304688 C 19.515625 -25.761719 19.277344 -26 18.820312 -26 L 1.386719 -26 C 0.929688 -26 0.695312 -25.761719 0.695312 -25.304688 L 0.695312 -20.800781 C 0.695312 -20.34375 0.929688 -20.109375 1.386719 -20.109375 L 6.617188 -20.109375 L 6.617188 -0.695312 C 6.617188 -0.238281 6.871094 0 7.3125 0 Z M 12.898438 0 "/></g></g></g><g fill="#000000" fill-opacity="1"><g transform="translate(296.62544, 334.903075)"><g><path d="M 8.800781 0 C 9.257812 0 9.496094 -0.238281 9.496094 -0.695312 L 9.496094 -8.769531 L 18.585938 -8.769531 L 18.585938 -0.695312 C 18.585938 -0.238281 18.820312 0 19.277344 0 L 24.8125 0 C 25.269531 0 25.507812 -0.238281 25.507812 -0.695312 L 25.507812 -25.304688 C 25.507812 -25.761719 25.269531 -26 24.8125 -26 L 19.277344 -26 C 18.820312 -26 18.585938 -25.761719 18.585938 -25.304688 L 18.585938 -14.65625 L 9.496094 -14.65625 L 9.496094 -25.304688 C 9.496094 -25.761719 9.257812 -26 8.800781 -26 L 3.265625 -26 C 2.808594 -26 2.574219 -25.761719 2.574219 -25.304688 L 2.574219 -0.695312 C 2.574219 -0.238281 2.808594 0 3.265625 0 Z M 8.800781 0 "/></g></g></g><g fill="#000000" fill-opacity="1"><g transform="translate(102.021956, 368.00309)"><g><path d="M 7.890625 0.246094 C 11 0.246094 13.539062 -1.582031 14.351562 -4.425781 L 13.144531 -4.425781 C 12.410156 -2.242188 10.375 -0.902344 7.910156 -0.902344 C 4.6875 -0.902344 2.371094 -3.21875 2.371094 -6.589844 C 2.371094 -9.960938 4.6875 -12.277344 7.910156 -12.277344 C 10.320312 -12.277344 12.277344 -11 13.03125 -8.90625 L 14.238281 -8.90625 C 13.371094 -11.675781 10.902344 -13.425781 7.890625 -13.425781 C 4.011719 -13.425781 1.207031 -10.601562 1.207031 -6.589844 C 1.207031 -2.578125 4.011719 0.246094 7.890625 0.246094 Z M 7.890625 0.246094 "/></g></g></g><g fill="#000000" fill-opacity="1"><g transform="translate(125.035217, 368.00309)"><g><path d="M 2.128906 0 L 9.960938 0 L 9.960938 -1.09375 L 3.277344 -1.09375 L 3.277344 -13.183594 L 2.128906 -13.183594 Z M 2.128906 0 "/></g></g></g><g fill="#000000" fill-opacity="1"><g transform="translate(143.171007, 368.00309)"><g><path d="M 8.003906 0.246094 C 12.035156 0.246094 14.800781 -2.5625 14.800781 -6.589844 C 14.800781 -10.621094 12.035156 -13.425781 8.003906 -13.425781 C 3.992188 -13.425781 1.207031 -10.621094 1.207031 -6.589844 C 1.207031 -2.5625 3.992188 0.246094 8.003906 0.246094 Z M 2.371094 -6.589844 C 2.371094 -9.980469 4.671875 -12.277344 8.003906 -12.277344 C 11.355469 -12.277344 13.652344 -9.980469 13.652344 -6.589844 C 13.652344 -3.21875 11.355469 -0.902344 8.003906 -0.902344 C 4.671875 -0.902344 2.371094 -3.21875 2.371094 -6.589844 Z M 2.371094 -6.589844 "/></g></g></g><g fill="#000000" fill-opacity="1"><g transform="translate(166.711569, 368.00309)"><g><path d="M 5.253906 0 L 6.382812 0 L 6.382812 -12.089844 L 10.941406 -12.089844 L 10.941406 -13.183594 L 0.714844 -13.183594 L 0.714844 -12.089844 L 5.253906 -12.089844 Z M 5.253906 0 "/></g></g></g><g fill="#000000" fill-opacity="1"><g transform="translate(185.901942, 368.00309)"><g><path d="M 11 0 L 12.148438 0 L 12.148438 -13.183594 L 11 -13.183594 L 11 -7.269531 L 3.277344 -7.269531 L 3.277344 -13.183594 L 2.128906 -13.183594 L 2.128906 0 L 3.277344 0 L 3.277344 -6.175781 L 11 -6.175781 Z M 11 0 "/></g></g></g><g fill="#000000" fill-opacity="1"><g transform="translate(207.709956, 368.00309)"><g><path d="M 2.128906 0 L 3.277344 0 L 3.277344 -13.183594 L 2.128906 -13.183594 Z M 2.128906 0 "/></g></g></g><g fill="#000000" fill-opacity="1"><g transform="translate(220.648119, 368.00309)"><g><path d="M 2.128906 0 L 3.257812 0 L 3.257812 -11.222656 L 11.28125 0 L 12.355469 0 L 12.355469 -13.183594 L 11.222656 -13.183594 L 11.222656 -1.976562 L 3.203125 -13.183594 L 2.128906 -13.183594 Z M 2.128906 0 "/></g></g></g><g fill="#000000" fill-opacity="1"><g transform="translate(242.6633, 368.00309)"><g><path d="M 7.871094 0.246094 C 11.882812 0.246094 14.558594 -2.75 14.519531 -6.929688 L 7.457031 -6.929688 L 7.457031 -5.839844 L 13.296875 -5.839844 C 13.050781 -2.957031 10.960938 -0.902344 7.890625 -0.902344 C 4.632812 -0.902344 2.371094 -3.21875 2.371094 -6.589844 C 2.371094 -9.960938 4.613281 -12.277344 7.890625 -12.277344 C 10.246094 -12.277344 12.054688 -11.074219 12.882812 -9.113281 L 14.125 -9.113281 C 13.277344 -11.675781 10.886719 -13.425781 7.835938 -13.425781 C 3.972656 -13.425781 1.207031 -10.582031 1.207031 -6.589844 C 1.207031 -2.597656 3.972656 0.246094 7.871094 0.246094 Z M 7.871094 0.246094 "/></g></g></g></svg>