<svg xmlns="http://www.w3.org/2000/svg" xmlns:xlink="http://www.w3.org/1999/xlink" width="500" zoomAndPan="magnify" viewBox="0 0 375 374.999991" height="500" preserveAspectRatio="xMidYMid meet" version="1.0"><defs><g/><clipPath id="a35afae51a"><path d="M 131.5625 72.539062 L 243.3125 72.539062 L 243.3125 206.789062 L 131.5625 206.789062 Z M 131.5625 72.539062 " clip-rule="nonzero"/></clipPath></defs><g clip-path="url(#a35afae51a)"><path fill="#000000" d="M 192.390625 72.558594 C 193.363281 73.335938 192.984375 74.261719 193.054688 75.058594 C 193.246094 77.214844 193.332031 79.378906 193.511719 81.53125 C 193.585938 82.394531 193.515625 83.484375 194 84.054688 C 195.78125 86.167969 195.667969 88.929688 196.730469 91.269531 C 197.804688 93.636719 198.945312 95.980469 199.910156 98.390625 C 202.480469 104.820312 205.417969 111.121094 206.695312 118 C 206.800781 118.558594 206.992188 119.125 207.246094 119.632812 C 208.871094 122.839844 210.527344 126.03125 212.6875 130.226562 C 213.613281 127.554688 214.195312 125.953125 214.722656 124.335938 C 215.75 121.1875 216.652344 117.992188 217.789062 114.878906 C 218.675781 112.449219 219.734375 110.066406 220.910156 107.761719 C 221.890625 105.835938 222.976562 105.617188 224.785156 106.65625 C 225.777344 107.222656 226.746094 107.84375 227.984375 108.597656 C 228.464844 112.234375 229.84375 115.863281 230.257812 119.773438 C 230.601562 123.054688 231.667969 126.261719 232.421875 129.496094 C 232.847656 131.324219 233.378906 133.128906 233.703125 134.96875 C 234.476562 139.375 235.078125 143.816406 235.90625 148.214844 C 236.679688 152.328125 237.710938 156.390625 238.519531 160.5 C 238.933594 162.613281 239.113281 164.773438 239.394531 166.914062 C 239.867188 170.476562 240.269531 174.050781 240.839844 177.597656 C 241.042969 178.859375 241.4375 180.183594 242.105469 181.253906 C 243.308594 183.179688 243.148438 185.105469 242.550781 187.074219 C 241.1875 191.550781 241.160156 192.269531 242.601562 196.847656 C 242.027344 197.316406 241.410156 197.824219 240.753906 198.363281 C 239.433594 197.386719 239.730469 195.523438 237.980469 195.039062 C 236.859375 194.726562 235.980469 193.535156 235.046875 192.78125 C 233.542969 192.683594 232.542969 193.5625 231.445312 194.242188 C 229.109375 195.6875 226.765625 197.078125 223.949219 197.453125 C 222.96875 197.585938 221.988281 197.980469 221.09375 198.429688 C 215.5 201.242188 209.414062 202.589844 203.484375 204.390625 C 201.398438 205.023438 199.257812 205.046875 197.054688 204.949219 C 193.457031 204.785156 189.832031 204.863281 186.238281 205.101562 C 182.496094 205.34375 178.765625 205.824219 175.050781 206.339844 C 171.96875 206.765625 168.960938 206.605469 166.105469 205.417969 C 162.007812 203.710938 157.773438 203.269531 153.386719 203.335938 C 150.082031 203.386719 146.804688 203.085938 143.5 202.523438 C 140.3125 201.976562 137.679688 200.761719 134.664062 198.320312 C 139.558594 199.957031 143.992188 199.621094 148.320312 200.507812 C 148.417969 199.199219 147.824219 199.109375 147.28125 199.027344 C 145.285156 198.726562 143.296875 198.402344 141.292969 198.179688 C 138.503906 197.871094 135.960938 197.027344 133.765625 194.988281 C 133.949219 194.546875 134.15625 194.042969 134.46875 193.292969 C 133.554688 192.425781 132.558594 191.476562 131.5625 190.535156 C 132.460938 187.734375 132.460938 187.734375 135.300781 186.3125 C 136.355469 184.226562 135.453125 181.878906 135.753906 179.625 C 136.167969 176.492188 136.191406 173.300781 136.371094 170.136719 C 136.429688 169.125 136.621094 168.082031 136.453125 167.109375 C 135.855469 163.625 136.449219 160.191406 136.636719 156.734375 C 136.867188 152.550781 136.929688 148.359375 136.992188 144.167969 C 137.027344 141.546875 137.363281 139 138.121094 136.476562 C 138.824219 134.128906 139.261719 131.707031 139.863281 129.328125 C 140.390625 127.234375 140.882812 125.128906 141.574219 123.089844 C 142.210938 121.214844 142.691406 119.277344 144.582031 118 C 145.410156 117.441406 145.667969 116.035156 146.191406 115.019531 C 146.5625 114.304688 146.949219 113.59375 147.300781 112.933594 C 148.675781 113.363281 148.703125 114.417969 148.511719 115.136719 C 147.894531 117.488281 148.867188 119.292969 149.960938 121.238281 C 151.652344 124.246094 153.160156 127.367188 154.5625 130.519531 C 155.371094 132.347656 155.820312 134.332031 156.425781 136.25 C 156.511719 136.523438 156.488281 136.835938 156.597656 137.097656 C 158.390625 141.347656 160.183594 145.601562 162.019531 149.832031 C 162.167969 150.179688 162.632812 150.390625 163.09375 150.785156 C 164.871094 148.398438 164.757812 145.988281 163.183594 143.359375 C 164.214844 143.601562 164.714844 143.722656 165.320312 143.863281 C 166.839844 140.769531 167.496094 137.546875 167.617188 134.210938 C 167.695312 132.023438 168 129.894531 168.886719 127.886719 C 170.65625 123.863281 171.027344 119.492188 171.925781 115.273438 C 173.574219 107.492188 176.015625 99.964844 178.5 92.441406 C 178.859375 91.351562 179.363281 90.285156 179.960938 89.304688 C 181.246094 87.191406 182.195312 85 182.785156 82.5625 C 183.394531 80.046875 185.332031 78.175781 186.863281 76.148438 C 187.25 75.640625 188.253906 75.628906 188.695312 75.136719 C 189.074219 74.714844 189.054688 73.933594 189.289062 73.003906 C 190.234375 73.753906 190.855469 74.246094 191.589844 74.832031 C 191.878906 74.019531 192.121094 73.324219 192.390625 72.558594 Z M 185.285156 99.070312 C 184.9375 100.152344 184.601562 101.070312 184.351562 102.011719 C 184.019531 103.265625 183.765625 104.535156 183.460938 105.792969 C 182.953125 107.894531 182.386719 109.980469 181.921875 112.085938 C 181.484375 114.058594 181.304688 116.097656 180.730469 118.019531 C 179.410156 122.4375 177.878906 126.796875 177.652344 131.460938 C 177.636719 131.742188 177.5 132.019531 177.421875 132.296875 C 176.40625 135.90625 175.335938 139.503906 174.390625 143.132812 C 173.488281 146.59375 172.269531 149.980469 172.839844 153.730469 C 173.015625 154.898438 172.578125 156.347656 172.308594 157.648438 C 170.789062 157.980469 170.855469 159.226562 170.726562 160.371094 C 170.566406 161.789062 170.5 163.238281 170.167969 164.617188 C 169.878906 165.820312 170.597656 167.027344 169.601562 168.3125 C 168.8125 169.335938 168.90625 171.015625 168.492188 172.371094 C 168.285156 173.03125 167.8125 173.605469 167.414062 174.304688 C 166.589844 174.144531 165.816406 174.164062 165.222656 173.847656 C 162.925781 172.621094 160.878906 171.132812 159.640625 168.675781 C 159.070312 167.355469 158.761719 165.859375 157.476562 165.046875 C 157.503906 165.078125 157.53125 165.109375 157.558594 165.140625 L 157.566406 165.148438 L 157.558594 165.140625 C 157.128906 165.332031 157.34375 165.234375 156.914062 165.433594 L 157.472656 165.046875 C 156.746094 164.222656 156.148438 163.277344 155.144531 162.761719 C 153.605469 162.15625 152.960938 160.976562 152.308594 159.722656 C 151.710938 158.574219 151.246094 157.351562 150.71875 156.167969 C 149.621094 153.703125 148.523438 151.242188 147.277344 148.445312 C 145.652344 151.496094 145.542969 154.378906 145.632812 157.261719 C 145.734375 160.582031 145.96875 163.894531 146.183594 167.210938 C 146.265625 168.480469 146.445312 169.75 146.625 171.4375 C 145.839844 170.550781 145.261719 169.898438 144.789062 169.367188 C 143.691406 174.4375 145.316406 179.121094 147.550781 183.929688 C 149.878906 183.992188 152.328125 184.191406 154.765625 184.09375 C 157.984375 183.960938 161.097656 184.339844 164.09375 185.488281 C 167.996094 186.980469 172.007812 186.804688 176.054688 186.523438 C 181.375 186.152344 186.707031 185.523438 192.023438 185.628906 C 197.417969 185.738281 202.585938 185.332031 207.695312 183.445312 C 211.476562 182.050781 215.4375 181.167969 219.035156 179.253906 C 219.914062 178.785156 220.90625 178.402344 221.882812 178.28125 C 225.410156 177.84375 228.28125 175.835938 231.578125 174.625 C 231.304688 172.335938 231.378906 170.097656 230.730469 168.089844 C 228.59375 161.460938 227.632812 154.597656 226.242188 147.8125 C 225.175781 142.605469 222.894531 137.734375 221.035156 132.757812 C 220.972656 132.589844 220.535156 132.558594 220.132812 132.414062 C 219.800781 133.015625 219.347656 133.597656 219.140625 134.261719 C 217.625 139.070312 216.128906 143.886719 214.683594 148.71875 C 214.066406 150.792969 213.625 152.90625 214.355469 155.074219 C 214.402344 155.214844 214.085938 155.476562 213.777344 155.910156 C 213.058594 155.203125 212.300781 154.585938 211.714844 153.828125 C 211.386719 153.402344 211.476562 152.652344 211.148438 152.21875 C 209.332031 149.820312 207.527344 147.398438 205.542969 145.140625 C 204.546875 144.007812 203.847656 142.847656 203.554688 141.390625 C 202.808594 137.644531 200.953125 134.410156 198.976562 131.203125 C 197.390625 128.621094 196.21875 125.832031 195.597656 122.828125 C 195.308594 121.433594 194.855469 120.070312 194.398438 118.71875 C 193.941406 117.355469 193.4375 116 192.867188 114.679688 C 190.75 109.789062 188.609375 104.90625 186.4375 100.039062 C 186.285156 99.695312 185.8125 99.5 185.285156 99.070312 Z M 185.285156 99.070312 " fill-opacity="1" fill-rule="nonzero"/></g><g fill="#000000" fill-opacity="1"><g transform="translate(110.0475, 277.658393)"><g><path d="M 3.929688 -8.183594 C 3.769531 -8.105469 3.609375 -8.183594 3.449219 -8.34375 C 3.371094 -8.503906 3.289062 -8.746094 3.289062 -9.066406 C 3.289062 -9.867188 3.449219 -10.269531 3.851562 -10.269531 C 4.171875 -10.269531 4.332031 -10.03125 4.332031 -9.546875 C 4.332031 -8.988281 4.171875 -8.585938 3.851562 -8.425781 Z M 10.671875 -62.90625 C 6.820312 -62.582031 4.734375 -62.34375 4.414062 -62.183594 C 4.09375 -62.023438 3.929688 -61.699219 3.929688 -61.300781 C 3.929688 -60.738281 4.171875 -60.335938 4.734375 -60.097656 C 5.375 -59.855469 5.535156 -59.375 5.296875 -58.570312 C 5.054688 -57.847656 5.296875 -57.367188 6.097656 -57.207031 C 6.898438 -57.046875 7.140625 -56.644531 6.898438 -55.925781 C 6.898438 -55.761719 6.820312 -55.601562 6.820312 -55.441406 C 6.820312 -55.042969 7.460938 -54.882812 8.824219 -54.882812 C 10.429688 -54.882812 11.234375 -54.71875 11.234375 -54.398438 C 11.234375 -54.160156 10.671875 -52.554688 9.546875 -49.664062 C 8.105469 -46.054688 6.5 -40.277344 4.734375 -32.335938 C 2.96875 -24.390625 2.007812 -18.613281 1.84375 -14.921875 C 1.765625 -11.953125 1.605469 -9.148438 1.363281 -6.5 C 1.285156 -5.054688 1.285156 -4.011719 1.285156 -3.371094 C 1.285156 -2.726562 1.363281 -2.40625 1.523438 -2.40625 C 1.523438 -2.40625 1.605469 -2.488281 1.605469 -2.488281 C 1.605469 -2.488281 1.683594 -2.488281 1.683594 -2.488281 C 2.167969 -2.726562 2.40625 -3.289062 2.40625 -4.253906 C 2.40625 -5.136719 2.566406 -5.535156 2.886719 -5.535156 C 3.289062 -5.535156 3.691406 -5.054688 4.011719 -4.09375 C 4.332031 -3.128906 4.8125 -2.566406 5.375 -2.40625 C 5.9375 -2.085938 6.179688 -1.605469 6.179688 -0.800781 C 6.179688 0.320312 6.339844 0.882812 6.738281 0.882812 C 7.0625 0.882812 7.300781 0.480469 7.460938 -0.320312 C 7.78125 -1.84375 8.023438 -2.808594 8.183594 -3.210938 C 8.34375 -3.609375 8.585938 -3.769531 8.988281 -3.769531 C 9.148438 -3.769531 9.46875 -3.769531 9.949219 -3.691406 C 11.875 -3.449219 14.84375 -3.289062 18.855469 -3.128906 C 21.421875 -3.050781 23.1875 -2.96875 24.152344 -2.96875 C 24.953125 -2.96875 25.433594 -2.96875 25.59375 -3.050781 C 25.753906 -3.128906 25.835938 -3.371094 25.835938 -3.769531 C 25.835938 -4.574219 25.675781 -5.054688 25.273438 -5.214844 C 24.871094 -5.535156 24.792969 -5.9375 25.035156 -6.417969 C 25.195312 -7.0625 25.035156 -7.703125 24.472656 -8.34375 C 24.152344 -8.664062 23.992188 -9.148438 23.992188 -9.789062 C 23.992188 -10.03125 22.546875 -10.429688 19.578125 -10.992188 C 16.609375 -11.554688 14.441406 -11.875 13 -11.875 C 12.277344 -11.875 11.792969 -11.875 11.472656 -11.875 C 11.234375 -11.875 10.992188 -12.035156 10.832031 -12.277344 C 10.671875 -12.515625 10.589844 -12.917969 10.589844 -13.480469 C 10.589844 -14.441406 11.074219 -17.492188 12.117188 -22.625 C 14.042969 -32.253906 15.484375 -38.832031 16.527344 -42.445312 C 17.570312 -46.054688 19.175781 -49.988281 21.34375 -54.320312 C 23.269531 -58.089844 24.3125 -60.496094 24.472656 -61.621094 C 24.632812 -62.101562 24.710938 -62.421875 24.710938 -62.664062 C 24.710938 -62.984375 24.230469 -63.144531 23.269531 -63.144531 C 22.144531 -63.144531 21.503906 -63.304688 21.34375 -63.625 C 21.261719 -63.785156 21.023438 -63.867188 20.621094 -63.867188 C 20.460938 -63.867188 20.140625 -63.867188 19.738281 -63.867188 C 19.335938 -63.867188 19.097656 -63.785156 18.933594 -63.785156 C 18.453125 -63.785156 18.214844 -63.867188 18.214844 -64.027344 C 18.214844 -64.269531 18.132812 -64.429688 18.132812 -64.507812 C 18.054688 -64.667969 17.890625 -64.75 17.8125 -64.75 C 17.570312 -64.75 17.25 -64.429688 16.847656 -63.785156 C 16.449219 -63.144531 14.441406 -62.664062 10.75 -62.34375 Z M 10.671875 -62.90625 "/></g></g></g><g fill="#000000" fill-opacity="1"><g transform="translate(137.807079, 277.658393)"><g><path d="M 8.023438 -49.425781 C 4.171875 -48.621094 2.007812 -48.222656 1.445312 -48.222656 C 1.285156 -48.222656 1.203125 -45.492188 1.203125 -39.957031 C 1.203125 -34.179688 1.285156 -28.003906 1.445312 -21.34375 C 1.605469 -14.683594 1.765625 -11.234375 1.925781 -10.910156 C 2.328125 -9.949219 2.726562 -8.503906 3.050781 -6.578125 C 3.691406 -3.609375 4.253906 -2.167969 4.8125 -2.167969 C 4.972656 -2.167969 5.136719 -2.328125 5.214844 -2.566406 C 5.535156 -3.050781 6.257812 -3.050781 7.300781 -2.648438 C 8.585938 -2.167969 12.035156 -1.925781 17.652344 -1.925781 C 18.292969 -1.925781 19.496094 -1.925781 20.058594 -1.925781 C 20.539062 -2.007812 21.503906 -2.007812 21.984375 -2.007812 C 21.902344 -2.566406 21.742188 -3.53125 21.664062 -4.332031 C 21.34375 -6.019531 21.101562 -6.898438 20.941406 -6.898438 C 19.816406 -7.382812 19.257812 -7.78125 19.257812 -8.105469 C 19.257812 -8.265625 19.335938 -8.503906 19.578125 -8.824219 C 19.816406 -9.066406 19.980469 -9.226562 19.980469 -9.386719 C 19.980469 -9.546875 19.417969 -9.628906 18.292969 -9.628906 C 16.929688 -9.628906 15.324219 -9.789062 13.480469 -10.191406 C 11.632812 -10.589844 10.589844 -10.992188 10.351562 -11.394531 C 10.03125 -11.792969 9.867188 -12.757812 9.867188 -14.363281 C 9.867188 -15.003906 9.867188 -16.207031 9.867188 -16.769531 C 11.472656 -16.769531 14.203125 -16.847656 16.367188 -16.929688 C 20.699219 -17.011719 23.027344 -17.171875 23.347656 -17.410156 C 23.429688 -17.492188 23.429688 -17.652344 23.429688 -17.8125 C 23.429688 -18.054688 23.347656 -18.375 23.109375 -18.773438 C 22.707031 -19.417969 22.546875 -20.140625 22.546875 -20.941406 C 22.546875 -21.664062 22.304688 -22.144531 21.742188 -22.304688 C 21.261719 -22.464844 21.023438 -22.949219 21.023438 -23.828125 C 21.023438 -24.152344 20.78125 -24.3125 20.21875 -24.390625 C 19.65625 -24.472656 18.292969 -24.550781 16.128906 -24.710938 C 14.28125 -24.871094 12.757812 -24.953125 11.632812 -24.953125 C 10.992188 -24.953125 10.671875 -24.953125 10.671875 -24.953125 C 10.671875 -24.953125 10.589844 -24.953125 10.511719 -24.953125 C 10.03125 -24.953125 9.789062 -26.878906 9.789062 -30.730469 C 9.789062 -31.371094 9.789062 -32.574219 9.789062 -33.136719 C 9.867188 -34.582031 9.867188 -37.46875 9.867188 -38.914062 C 10.75 -39.15625 12.277344 -39.554688 13.480469 -39.875 C 15.886719 -40.519531 17.652344 -41.402344 18.773438 -42.523438 C 19.898438 -43.808594 20.460938 -44.449219 20.460938 -44.449219 C 20.460938 -44.449219 20.300781 -44.449219 19.980469 -44.371094 C 19.738281 -44.371094 19.335938 -44.289062 18.933594 -44.210938 C 18.855469 -44.210938 18.773438 -44.210938 18.695312 -44.128906 C 18.613281 -44.128906 18.535156 -44.128906 18.453125 -44.128906 C 17.8125 -44.128906 17.492188 -44.289062 17.492188 -44.691406 C 17.492188 -44.933594 17.652344 -45.171875 18.054688 -45.414062 C 18.214844 -45.574219 18.292969 -45.894531 18.292969 -46.375 C 18.292969 -47.820312 17.972656 -48.78125 17.25 -49.265625 C 16.847656 -49.503906 16.367188 -49.664062 15.726562 -49.664062 C 15.085938 -49.664062 14.523438 -49.503906 14.042969 -49.183594 C 13.71875 -49.023438 11.632812 -48.542969 7.78125 -47.738281 Z M 8.023438 -49.425781 "/></g></g></g><g fill="#000000" fill-opacity="1"><g transform="translate(163.159773, 277.658393)"><g><path d="M 21.183594 -47.738281 C 21.183594 -45.976562 21.34375 -43.246094 21.664062 -39.554688 C 22.546875 -31.371094 23.027344 -26.15625 23.027344 -23.992188 C 23.027344 -23.347656 22.949219 -22.625 22.867188 -21.824219 C 22.785156 -21.101562 22.707031 -20.78125 22.546875 -20.78125 C 22.226562 -20.78125 20.621094 -24.390625 17.730469 -31.691406 C 15.003906 -38.671875 13.160156 -43.167969 12.195312 -45.253906 C 11.234375 -47.339844 10.269531 -48.945312 9.308594 -50.066406 C 8.90625 -50.46875 8.183594 -51.191406 7.863281 -51.511719 C 7.460938 -51.109375 6.820312 -50.386719 6.257812 -49.824219 C 5.214844 -48.703125 4.734375 -47.820312 4.734375 -47.257812 C 4.734375 -46.777344 4.492188 -46.535156 4.011719 -46.535156 C 3.53125 -46.535156 2.96875 -42.765625 2.328125 -35.144531 C 1.925781 -29.6875 1.765625 -24.070312 1.765625 -18.375 C 1.765625 -10.429688 2.167969 -5.695312 2.96875 -4.171875 C 3.449219 -3.050781 3.929688 -1.125 4.414062 1.605469 C 4.574219 2.726562 4.972656 4.894531 5.136719 5.9375 C 5.136719 5.054688 5.136719 3.53125 5.136719 2.328125 C 5.214844 -0.160156 5.375 -1.523438 5.617188 -1.84375 C 5.695312 -1.925781 5.695312 -1.925781 5.695312 -1.925781 C 5.9375 -1.925781 6.257812 -0.800781 6.738281 1.363281 C 7.140625 3.929688 7.703125 5.136719 8.34375 5.136719 C 8.988281 5.136719 9.386719 5.617188 9.628906 6.578125 C 9.867188 7.542969 10.191406 8.023438 10.589844 8.023438 C 10.832031 8.023438 10.910156 7.0625 10.910156 5.054688 C 10.910156 2.808594 10.910156 0.800781 10.832031 -0.960938 C 10.351562 -13.640625 10.109375 -21.183594 10.109375 -23.589844 C 10.109375 -25.035156 10.109375 -25.753906 10.269531 -25.753906 C 10.429688 -25.675781 10.429688 -25.675781 10.429688 -25.59375 C 10.75 -24.953125 11.875 -22.066406 13.800781 -16.847656 C 15.246094 -12.917969 16.449219 -10.109375 17.332031 -8.503906 C 18.214844 -6.898438 19.257812 -5.777344 20.378906 -5.136719 C 21.261719 -4.652344 22.066406 -4.414062 22.867188 -4.414062 C 24.472656 -4.414062 25.914062 -5.136719 27.28125 -6.578125 C 28.5625 -8.023438 29.605469 -10.03125 30.410156 -12.597656 C 31.210938 -15.164062 31.613281 -18.933594 31.613281 -23.992188 C 31.613281 -28.484375 31.292969 -31.453125 30.648438 -32.976562 C 30.167969 -34.101562 29.6875 -36.507812 29.125 -40.117188 C 28.5625 -43.726562 28.324219 -46.535156 28.324219 -48.542969 C 28.324219 -50.148438 28.164062 -50.949219 27.761719 -50.949219 C 27.601562 -50.949219 27.519531 -50.226562 27.519531 -48.78125 C 27.519531 -47.097656 27.519531 -45.652344 27.601562 -44.371094 C 27.679688 -42.363281 27.679688 -41.160156 27.679688 -40.679688 C 27.679688 -38.753906 27.601562 -37.789062 27.359375 -37.789062 C 27.039062 -37.789062 26.636719 -39.234375 26.15625 -42.203125 C 26.078125 -42.84375 25.753906 -44.933594 25.273438 -48.542969 C 25.113281 -49.824219 24.710938 -50.546875 24.152344 -50.707031 C 23.667969 -50.867188 23.429688 -51.75 23.429688 -53.4375 C 23.429688 -55.28125 23.269531 -56.164062 22.949219 -56.164062 C 22.546875 -56.164062 22.226562 -55.363281 21.902344 -53.675781 C 21.503906 -52.152344 21.34375 -50.148438 21.34375 -47.578125 Z M 21.183594 -47.738281 "/></g></g></g><g fill="#000000" fill-opacity="1"><g transform="translate(196.615712, 277.658393)"><g><path d="M 5.617188 -37.789062 C 5.457031 -37.789062 5.375 -37.871094 5.214844 -37.871094 C 5.054688 -37.871094 4.894531 -37.871094 4.894531 -37.871094 C 4.574219 -37.871094 4.332031 -37.710938 4.011719 -37.308594 C 3.609375 -36.746094 3.128906 -36.585938 2.648438 -36.746094 C 2.566406 -36.746094 2.566406 -36.746094 2.566406 -36.746094 C 2.167969 -36.746094 1.925781 -34.660156 1.765625 -30.488281 C 1.523438 -25.59375 1.445312 -21.023438 1.445312 -16.6875 C 1.445312 -10.910156 1.523438 -7.941406 1.84375 -7.78125 C 2.167969 -7.621094 2.488281 -6.339844 2.726562 -3.929688 C 2.96875 -1.683594 3.289062 -0.5625 3.609375 -0.5625 C 3.851562 -0.5625 4.011719 -1.363281 4.011719 -3.050781 C 4.011719 -4.734375 4.171875 -5.535156 4.492188 -5.535156 C 4.8125 -5.535156 5.054688 -4.8125 5.214844 -3.371094 C 5.457031 -1.84375 5.9375 -1.125 6.660156 -1.125 C 7.382812 -1.125 7.703125 -0.882812 7.703125 -0.320312 C 7.703125 0.242188 7.941406 0.480469 8.425781 0.480469 C 8.90625 0.480469 9.308594 0.160156 9.546875 -0.402344 C 9.628906 -0.722656 9.628906 -2.648438 9.628906 -6.179688 C 9.628906 -11.953125 9.546875 -18.695312 9.386719 -26.398438 C 9.308594 -34.101562 9.148438 -38.03125 8.988281 -38.273438 C 8.824219 -38.511719 8.585938 -38.59375 8.183594 -38.59375 C 7.703125 -38.59375 7.140625 -38.433594 6.5 -38.03125 C 6.179688 -37.871094 5.777344 -37.789062 5.457031 -37.789062 Z M 6.019531 -57.046875 C 5.296875 -57.207031 4.734375 -56.96875 4.414062 -56.324219 C 3.929688 -55.523438 3.449219 -55.28125 2.808594 -55.523438 C 2.726562 -55.601562 2.566406 -55.601562 2.40625 -55.601562 C 2.085938 -55.601562 1.925781 -55.363281 1.84375 -54.800781 C 1.765625 -54.238281 1.683594 -53.035156 1.605469 -51.191406 C 1.605469 -50.546875 1.605469 -49.664062 1.605469 -48.460938 C 1.605469 -46.617188 1.683594 -45.414062 1.84375 -44.851562 C 2.085938 -44.128906 2.246094 -43.726562 2.328125 -43.726562 C 2.488281 -43.726562 2.726562 -43.96875 3.050781 -44.449219 C 3.371094 -44.933594 3.609375 -45.171875 3.769531 -45.171875 C 3.929688 -45.171875 4.253906 -44.933594 4.8125 -44.449219 C 5.535156 -43.808594 6.257812 -43.488281 7.0625 -43.488281 C 8.34375 -43.488281 9.148438 -44.050781 9.46875 -45.171875 C 9.789062 -46.457031 9.949219 -48.945312 9.949219 -52.632812 C 9.949219 -54.71875 9.867188 -56.246094 9.707031 -57.207031 C 9.46875 -58.011719 9.066406 -58.410156 8.503906 -58.410156 C 8.105469 -58.410156 7.78125 -58.25 7.542969 -57.847656 C 7.382812 -57.449219 6.898438 -57.367188 6.097656 -57.527344 Z M 6.019531 -57.046875 "/></g></g></g><g fill="#000000" fill-opacity="1"><g transform="translate(208.008389, 277.658393)"><g><path d="M 10.910156 -57.128906 C 10.429688 -56.566406 9.949219 -56.40625 9.46875 -56.566406 C 9.308594 -56.644531 9.226562 -56.644531 9.148438 -56.644531 C 9.066406 -56.644531 8.988281 -56.484375 8.824219 -56.324219 C 8.824219 -56.164062 8.746094 -56.003906 8.746094 -55.683594 C 8.746094 -55.441406 8.746094 -55.121094 8.746094 -54.71875 C 8.746094 -54.160156 8.746094 -53.117188 8.746094 -52.632812 C 7.863281 -52.472656 6.257812 -52.234375 4.972656 -52.074219 C 1.125 -51.429688 -0.722656 -50.546875 -0.722656 -49.425781 C -0.722656 -49.183594 -0.722656 -49.023438 -0.640625 -48.945312 C -0.480469 -48.300781 -0.242188 -47.980469 0.160156 -47.980469 C 0.480469 -47.980469 0.640625 -47.660156 0.640625 -47.019531 C 0.640625 -46.214844 1.042969 -45.734375 1.84375 -45.574219 C 2.566406 -45.332031 2.808594 -44.933594 2.648438 -44.371094 C 2.566406 -44.289062 2.566406 -44.128906 2.566406 -44.050781 C 2.566406 -43.886719 2.886719 -43.808594 3.609375 -43.808594 C 3.929688 -43.808594 4.492188 -43.808594 4.8125 -43.808594 C 5.457031 -43.886719 6.820312 -43.96875 7.460938 -43.96875 C 7.460938 -39.476562 7.460938 -32.015625 7.460938 -25.996094 C 7.542969 -14.601562 7.703125 -6.578125 7.941406 -1.925781 C 8.183594 2.566406 8.503906 4.8125 8.988281 4.8125 C 9.226562 4.8125 9.308594 3.851562 9.308594 1.84375 C 9.386719 -2.007812 9.707031 -3.929688 10.191406 -3.929688 C 10.351562 -3.929688 10.511719 -3.769531 10.511719 -3.609375 C 10.671875 -3.128906 10.832031 -1.765625 10.992188 0.480469 C 11.152344 2.726562 11.632812 4.253906 12.4375 4.972656 C 13.238281 5.695312 13.640625 6.417969 13.640625 7.140625 C 13.640625 7.863281 13.800781 8.183594 14.121094 8.183594 C 14.523438 8.183594 14.761719 7.703125 14.921875 6.738281 C 15.164062 5.214844 15.40625 -3.449219 15.566406 -19.335938 C 15.726562 -30.730469 15.804688 -37.628906 15.886719 -40.117188 C 15.96875 -42.605469 16.207031 -43.808594 16.609375 -43.808594 C 17.25 -43.808594 17.730469 -43.96875 18.054688 -44.289062 C 18.375 -44.609375 19.257812 -44.851562 20.699219 -44.933594 C 21.34375 -44.933594 22.464844 -45.011719 23.027344 -45.011719 C 22.625 -45.171875 21.902344 -45.492188 21.34375 -45.734375 C 20.058594 -46.214844 19.417969 -46.617188 19.417969 -46.9375 C 19.417969 -47.257812 19.816406 -47.417969 20.699219 -47.417969 C 21.664062 -47.417969 22.226562 -47.820312 22.464844 -48.621094 C 22.625 -49.34375 22.867188 -49.664062 23.269531 -49.664062 C 23.507812 -49.664062 23.667969 -49.824219 23.667969 -50.148438 C 23.667969 -50.546875 23.1875 -50.949219 22.144531 -51.351562 C 21.101562 -51.75 19.816406 -52.074219 18.292969 -52.234375 C 16.929688 -52.394531 16.128906 -52.554688 15.886719 -52.714844 C 15.644531 -52.875 15.484375 -53.355469 15.40625 -54.160156 C 15.085938 -57.046875 14.601562 -58.492188 13.878906 -58.492188 C 13.558594 -58.492188 13.238281 -58.332031 12.835938 -58.011719 C 12.4375 -57.6875 12.117188 -57.527344 11.792969 -57.527344 C 11.554688 -57.527344 11.394531 -57.609375 11.3125 -57.609375 C 10.671875 -57.769531 10.109375 -57.6875 9.707031 -57.207031 Z M 10.910156 -57.128906 "/></g></g></g><g fill="#000000" fill-opacity="1"><g transform="translate(234.725003, 277.658393)"><g><path d="M 1.042969 -53.4375 C 1.042969 -52.957031 1.042969 -52.554688 1.125 -52.152344 C 1.445312 -49.105469 1.765625 -43.40625 2.007812 -35.144531 C 2.085938 -32.734375 2.167969 -30.570312 2.246094 -28.644531 C 2.328125 -26.71875 2.40625 -25.195312 2.40625 -24.070312 C 2.40625 -22.949219 2.488281 -21.582031 2.648438 -19.980469 C 2.808594 -18.375 2.886719 -17.332031 2.886719 -16.847656 C 2.886719 -16.367188 3.050781 -15.085938 3.289062 -13 C 3.53125 -10.910156 3.691406 -9.46875 3.769531 -8.746094 C 4.171875 -5.695312 4.492188 -4.171875 4.8125 -4.171875 C 5.136719 -4.171875 5.296875 -5.457031 5.296875 -8.105469 C 5.296875 -10.429688 5.457031 -11.554688 5.777344 -11.554688 C 6.097656 -11.554688 6.339844 -10.429688 6.5 -8.183594 C 6.738281 -5.9375 7.140625 -4.734375 7.78125 -4.574219 C 8.425781 -4.414062 8.824219 -4.011719 8.988281 -3.289062 C 9.148438 -2.488281 9.308594 -2.085938 9.546875 -2.085938 C 10.03125 -2.085938 10.429688 -3.210938 10.671875 -5.535156 C 10.75 -6.179688 10.75 -7.382812 10.75 -9.308594 C 10.75 -11.394531 10.75 -12.835938 10.671875 -13.71875 C 10.511719 -15.003906 10.351562 -17.492188 10.269531 -18.695312 C 10.75 -18.773438 11.554688 -18.933594 12.195312 -19.015625 C 12.917969 -19.175781 13.800781 -19.257812 14.761719 -19.257812 C 14.921875 -19.257812 15.164062 -19.175781 15.484375 -19.175781 C 15.804688 -19.175781 16.046875 -19.175781 16.207031 -19.175781 C 16.6875 -19.097656 17.652344 -19.015625 18.132812 -19.015625 C 18.132812 -18.054688 18.132812 -16.449219 18.132812 -15.164062 C 18.132812 -13.480469 18.375 -11.394531 18.855469 -8.824219 C 19.335938 -6.257812 19.578125 -4.09375 19.578125 -2.328125 C 19.578125 0.242188 19.738281 1.523438 20.058594 1.523438 C 20.378906 1.523438 20.539062 0.242188 20.539062 -2.40625 C 20.539062 -5.457031 20.78125 -6.980469 21.34375 -6.980469 C 21.503906 -6.980469 21.664062 -6.738281 21.824219 -6.257812 C 21.984375 -5.535156 22.066406 -4.332031 22.066406 -2.566406 C 22.066406 -0.722656 22.386719 0.480469 23.109375 0.960938 C 23.828125 1.445312 24.230469 2.007812 24.3125 2.648438 C 24.472656 3.53125 24.710938 3.929688 25.035156 3.929688 C 25.515625 3.929688 25.835938 3.128906 26.078125 1.445312 C 26.316406 -0.640625 26.398438 -8.105469 26.398438 -20.941406 C 26.398438 -41 26.238281 -51.351562 25.835938 -52.074219 C 25.433594 -52.875 25.273438 -53.675781 25.273438 -54.558594 C 25.273438 -55.363281 25.113281 -56.164062 24.953125 -56.886719 C 24.710938 -57.449219 24.152344 -57.769531 23.269531 -57.769531 C 22.785156 -57.769531 22.546875 -57.609375 22.546875 -57.289062 C 22.546875 -56.886719 22.226562 -56.726562 21.503906 -56.726562 C 20.699219 -56.726562 20.21875 -56.484375 20.058594 -55.925781 C 19.816406 -55.28125 19.417969 -55.121094 18.933594 -55.363281 C 18.773438 -55.363281 18.773438 -55.363281 18.773438 -55.363281 C 18.453125 -55.363281 18.292969 -54.558594 18.214844 -52.957031 C 18.132812 -51.351562 18.132812 -47.820312 18.132812 -42.285156 C 18.132812 -38.914062 18.132812 -32.253906 18.132812 -28.882812 C 17.25 -28.964844 15.726562 -29.125 14.523438 -29.207031 C 11.792969 -29.527344 10.351562 -29.6875 10.191406 -29.765625 C 9.867188 -30.007812 9.707031 -31.210938 9.707031 -33.378906 C 9.707031 -36.90625 9.226562 -41.964844 8.265625 -48.542969 C 7.300781 -55.121094 6.578125 -58.410156 6.097656 -58.410156 C 6.019531 -58.410156 5.617188 -58.171875 4.8125 -57.609375 C 4.171875 -57.046875 3.53125 -56.804688 2.886719 -56.804688 C 2.40625 -56.804688 2.007812 -56.566406 1.605469 -56.003906 C 1.203125 -55.441406 0.800781 -55.203125 0.402344 -55.203125 C -0.0820312 -55.203125 -0.320312 -54.882812 -0.320312 -54.160156 Z M 1.042969 -53.4375 "/></g></g></g><g fill="#000000" fill-opacity="1"><g transform="translate(123.821107, 298.77898)"><g><path d="M 5.046875 0.171875 C 4.316406 0.171875 3.660156 0.0703125 3.078125 -0.125 C 2.503906 -0.320312 2.023438 -0.582031 1.640625 -0.90625 C 1.265625 -1.226562 0.976562 -1.582031 0.78125 -1.96875 L 1.53125 -2.859375 L 1.734375 -2.859375 C 2.441406 -1.660156 3.546875 -1.0625 5.046875 -1.0625 C 5.910156 -1.0625 6.550781 -1.238281 6.96875 -1.59375 C 7.394531 -1.957031 7.609375 -2.460938 7.609375 -3.109375 C 7.609375 -3.492188 7.535156 -3.816406 7.390625 -4.078125 C 7.253906 -4.335938 7.023438 -4.5625 6.703125 -4.75 C 6.390625 -4.9375 5.957031 -5.097656 5.40625 -5.234375 L 4.0625 -5.5625 C 3.050781 -5.8125 2.304688 -6.195312 1.828125 -6.71875 C 1.359375 -7.25 1.125 -7.921875 1.125 -8.734375 C 1.125 -9.304688 1.269531 -9.816406 1.5625 -10.265625 C 1.851562 -10.710938 2.28125 -11.0625 2.84375 -11.3125 C 3.414062 -11.570312 4.097656 -11.703125 4.890625 -11.703125 C 5.753906 -11.703125 6.484375 -11.578125 7.078125 -11.328125 C 7.679688 -11.085938 8.160156 -10.722656 8.515625 -10.234375 L 7.859375 -9.34375 L 7.65625 -9.34375 C 7.320312 -9.75 6.929688 -10.046875 6.484375 -10.234375 C 6.035156 -10.421875 5.503906 -10.515625 4.890625 -10.515625 C 4.085938 -10.515625 3.484375 -10.359375 3.078125 -10.046875 C 2.671875 -9.734375 2.46875 -9.304688 2.46875 -8.765625 C 2.46875 -8.242188 2.617188 -7.828125 2.921875 -7.515625 C 3.222656 -7.210938 3.726562 -6.976562 4.4375 -6.8125 L 5.8125 -6.484375 C 6.9375 -6.210938 7.75 -5.804688 8.25 -5.265625 C 8.75 -4.722656 9 -4.023438 9 -3.171875 C 9 -2.523438 8.851562 -1.945312 8.5625 -1.4375 C 8.269531 -0.9375 7.828125 -0.539062 7.234375 -0.25 C 6.640625 0.03125 5.910156 0.171875 5.046875 0.171875 Z M 5.046875 0.171875 "/></g></g></g><g fill="#000000" fill-opacity="1"><g transform="translate(136.16516, 298.77898)"><g><path d="M 9 -11.53125 L 9 -10.375 L 5.390625 -10.375 L 5.390625 0 L 4.046875 0 L 4.046875 -10.375 L 0.421875 -10.375 L 0.421875 -11.53125 Z M 9 -11.53125 "/></g></g></g><g fill="#000000" fill-opacity="1"><g transform="translate(148.043654, 298.77898)"><g><path d="M 1.75 0 L 1.75 -11.53125 L 5.9375 -11.53125 C 6.707031 -11.53125 7.351562 -11.398438 7.875 -11.140625 C 8.40625 -10.890625 8.800781 -10.53125 9.0625 -10.0625 C 9.320312 -9.601562 9.453125 -9.054688 9.453125 -8.421875 C 9.453125 -7.703125 9.273438 -7.109375 8.921875 -6.640625 C 8.566406 -6.179688 8.007812 -5.832031 7.25 -5.59375 L 7.25 -5.4375 C 7.625 -5.289062 7.925781 -5.054688 8.15625 -4.734375 C 8.394531 -4.421875 8.613281 -3.953125 8.8125 -3.328125 L 9.890625 0 L 8.484375 0 L 7.34375 -3.53125 C 7.195312 -3.945312 7.035156 -4.269531 6.859375 -4.5 C 6.679688 -4.738281 6.457031 -4.910156 6.1875 -5.015625 C 5.914062 -5.117188 5.566406 -5.171875 5.140625 -5.171875 L 3.09375 -5.171875 L 3.09375 0 Z M 5.90625 -6.328125 C 6.625 -6.328125 7.15625 -6.492188 7.5 -6.828125 C 7.851562 -7.160156 8.03125 -7.671875 8.03125 -8.359375 C 8.03125 -9.035156 7.851562 -9.539062 7.5 -9.875 C 7.15625 -10.207031 6.625 -10.375 5.90625 -10.375 L 3.09375 -10.375 L 3.09375 -6.328125 Z M 5.90625 -6.328125 "/></g></g></g><g fill="#000000" fill-opacity="1"><g transform="translate(161.184666, 298.77898)"><g><path d="M 3.09375 -5.4375 L 3.09375 -1.125 L 8.984375 -1.125 L 8.984375 0 L 1.75 0 L 1.75 -11.53125 L 8.84375 -11.53125 L 8.84375 -10.40625 L 3.09375 -10.40625 L 3.09375 -6.5625 L 8.171875 -6.5625 L 8.171875 -5.4375 Z M 3.09375 -5.4375 "/></g></g></g><g fill="#000000" fill-opacity="1"><g transform="translate(173.386686, 298.77898)"><g><path d="M 3.09375 -5.4375 L 3.09375 -1.125 L 8.984375 -1.125 L 8.984375 0 L 1.75 0 L 1.75 -11.53125 L 8.84375 -11.53125 L 8.84375 -10.40625 L 3.09375 -10.40625 L 3.09375 -6.5625 L 8.171875 -6.5625 L 8.171875 -5.4375 Z M 3.09375 -5.4375 "/></g></g></g><g fill="#000000" fill-opacity="1"><g transform="translate(185.588706, 298.77898)"><g><path d="M 9 -11.53125 L 9 -10.375 L 5.390625 -10.375 L 5.390625 0 L 4.046875 0 L 4.046875 -10.375 L 0.421875 -10.375 L 0.421875 -11.53125 Z M 9 -11.53125 "/></g></g></g><g fill="#000000" fill-opacity="1"><g transform="translate(197.4672, 298.77898)"><g><path d="M 5.046875 0 L 3.265625 0 L 0.625 -11.53125 L 1.96875 -11.53125 L 4.140625 -2 L 4.328125 -2 L 6.921875 -11.53125 L 8.171875 -11.53125 L 10.765625 -2 L 10.953125 -2 L 13.140625 -11.53125 L 14.4375 -11.53125 L 11.796875 0 L 10.015625 0 L 7.609375 -8.734375 L 7.453125 -8.734375 Z M 5.046875 0 "/></g></g></g><g fill="#000000" fill-opacity="1"><g transform="translate(214.987579, 298.77898)"><g><path d="M 3.09375 -5.4375 L 3.09375 -1.125 L 8.984375 -1.125 L 8.984375 0 L 1.75 0 L 1.75 -11.53125 L 8.84375 -11.53125 L 8.84375 -10.40625 L 3.09375 -10.40625 L 3.09375 -6.5625 L 8.171875 -6.5625 L 8.171875 -5.4375 Z M 3.09375 -5.4375 "/></g></g></g><g fill="#000000" fill-opacity="1"><g transform="translate(227.189599, 298.77898)"><g><path d="M 10.375 0 L 8.9375 0 L 7.859375 -3.15625 L 2.953125 -3.15625 L 1.875 0 L 0.453125 0 L 4.484375 -11.53125 L 6.359375 -11.53125 Z M 5.3125 -10.140625 L 3.328125 -4.296875 L 7.484375 -4.296875 L 5.5 -10.140625 Z M 5.3125 -10.140625 "/></g></g></g><g fill="#000000" fill-opacity="1"><g transform="translate(240.488425, 298.77898)"><g><path d="M 1.75 0 L 1.75 -11.53125 L 5.9375 -11.53125 C 6.707031 -11.53125 7.351562 -11.398438 7.875 -11.140625 C 8.40625 -10.890625 8.800781 -10.53125 9.0625 -10.0625 C 9.320312 -9.601562 9.453125 -9.054688 9.453125 -8.421875 C 9.453125 -7.703125 9.273438 -7.109375 8.921875 -6.640625 C 8.566406 -6.179688 8.007812 -5.832031 7.25 -5.59375 L 7.25 -5.4375 C 7.625 -5.289062 7.925781 -5.054688 8.15625 -4.734375 C 8.394531 -4.421875 8.613281 -3.953125 8.8125 -3.328125 L 9.890625 0 L 8.484375 0 L 7.34375 -3.53125 C 7.195312 -3.945312 7.035156 -4.269531 6.859375 -4.5 C 6.679688 -4.738281 6.457031 -4.910156 6.1875 -5.015625 C 5.914062 -5.117188 5.566406 -5.171875 5.140625 -5.171875 L 3.09375 -5.171875 L 3.09375 0 Z M 5.90625 -6.328125 C 6.625 -6.328125 7.15625 -6.492188 7.5 -6.828125 C 7.851562 -7.160156 8.03125 -7.671875 8.03125 -8.359375 C 8.03125 -9.035156 7.851562 -9.539062 7.5 -9.875 C 7.15625 -10.207031 6.625 -10.375 5.90625 -10.375 L 3.09375 -10.375 L 3.09375 -6.328125 Z M 5.90625 -6.328125 "/></g></g></g></svg>